<svg width="73" height="28" viewBox="0 0 73 28" fill="none" xmlns="http://www.w3.org/2000/svg">
<path d="M1 14C1 6.8203 6.8203 1 14 1H52C63.0457 1 72 9.95431 72 21V27H14C6.8203 27 1 21.1797 1 14Z" fill="#ECF2FE"/>
<path d="M1 14C1 6.8203 6.8203 1 14 1H52C63.0457 1 72 9.95431 72 21V27H14C6.8203 27 1 21.1797 1 14Z" stroke="#74A0F6"/>
<path d="M14.957 10.58H19.423V16.916H14.957V10.58ZM15.892 16.146H18.51V11.35H15.892V16.146ZM21.392 19.347V9.634H22.349V19.347H21.392ZM29.1473 11.042H31.0503V9.656H32.0073V16.872H31.0503V13.803H29.1473V13.022H31.0503V11.834H29.1473V11.042ZM24.0323 14.859C25.4953 14.287 26.4193 12.912 26.4193 11.416V10.184H27.3763V11.416C27.3763 12.824 28.2783 14.155 29.6863 14.705L29.1693 15.453C28.1243 15.013 27.3213 14.166 26.9143 13.11C26.4963 14.243 25.6603 15.156 24.5383 15.607L24.0323 14.859ZM25.7593 19.116V16.146H26.7053V18.346H32.2383V19.116H25.7593ZM39.1077 10.085C40.4937 10.085 41.4837 10.855 41.4837 12.01C41.4837 13.011 40.7247 13.715 39.6027 13.88V14.793C40.4717 14.749 41.3517 14.672 42.1547 14.551L42.2317 15.244C40.2187 15.618 37.9417 15.64 36.2807 15.64L36.1597 14.87C36.8967 14.87 37.7547 14.87 38.6457 14.837V13.88C37.5017 13.737 36.7207 13.022 36.7207 12.01C36.7207 10.855 37.7107 10.085 39.1077 10.085ZM37.5457 19.116V16.421H38.5027V18.335H44.0467V19.116H37.5457ZM37.6117 12.01C37.6117 12.725 38.2167 13.198 39.1077 13.198C39.9877 13.198 40.6037 12.725 40.6037 12.01C40.6037 11.295 39.9877 10.822 39.1077 10.822C38.2167 10.822 37.6117 11.295 37.6117 12.01ZM42.7487 17.059V9.656H43.7057V12.89H45.1027V13.682H43.7057V17.059H42.7487ZM45.7959 17.367H48.2159V15.574H46.8849V12.549H52.5499V11.119H46.8629V10.349H53.4959V13.308H47.8199V14.804H53.7159V15.574H52.2309V17.367H54.5629V18.148H45.7959V17.367ZM49.1509 17.367H51.3069V15.574H49.1509V17.367ZM57.3572 10.437L57.2142 16.52H56.3562L56.1912 10.437H57.3572ZM56.1912 18.082C56.1912 17.73 56.4442 17.488 56.7962 17.488C57.1372 17.488 57.3792 17.73 57.3792 18.082C57.3792 18.434 57.1372 18.687 56.7962 18.687C56.4442 18.687 56.1912 18.434 56.1912 18.082Z" fill="#4681F3"/>
</svg>
