<svg width="24" height="24" viewBox="0 0 24 24" fill="none" xmlns="http://www.w3.org/2000/svg">
<path d="M11.1898 16.0426C12.6762 16.0426 13.8812 14.8376 13.8812 13.3511C13.8812 11.8647 12.6762 10.6597 11.1898 10.6597C9.7033 10.6597 8.49829 11.8647 8.49829 13.3511C8.49829 14.8376 9.7033 16.0426 11.1898 16.0426Z" fill="#FFA740"/>
<path fill-rule="evenodd" clip-rule="evenodd" d="M11.1889 5.33643C6.76228 5.33643 3.17383 8.92491 3.17383 13.3515C3.17383 17.7781 6.76228 21.3665 11.1889 21.3665C15.6155 21.3665 19.2039 17.7781 19.2039 13.3515C19.2039 11.7687 18.7446 10.2918 17.9519 9.04833C17.8035 8.81548 17.4944 8.74706 17.2615 8.8955C17.0287 9.04394 16.9603 9.35304 17.1087 9.58589C17.8021 10.6735 18.2039 11.9648 18.2039 13.3515C18.2039 17.2258 15.0632 20.3665 11.1889 20.3665C7.31456 20.3665 4.17383 17.2258 4.17383 13.3515C4.17383 9.47719 7.31456 6.33643 11.1889 6.33643C12.0201 6.33643 12.8165 6.48078 13.5551 6.74535C13.815 6.83848 14.1013 6.70323 14.1944 6.44327C14.2875 6.1833 14.1523 5.89706 13.8923 5.80394C13.047 5.50114 12.1367 5.33643 11.1889 5.33643ZM11.1892 7.86523C8.15931 7.86523 5.70312 10.3214 5.70312 13.3513C5.70312 16.3811 8.15931 18.8373 11.1892 18.8373C14.219 18.8373 16.6752 16.3811 16.6752 13.3513C16.6752 12.3145 16.3871 11.3436 15.8864 10.5157C15.7435 10.2795 15.4361 10.2038 15.1998 10.3467C14.9636 10.4896 14.8879 10.797 15.0308 11.0333C15.4397 11.7094 15.6752 12.5021 15.6752 13.3513C15.6752 15.8288 13.6667 17.8373 11.1892 17.8373C8.71159 17.8373 6.70312 15.8288 6.70312 13.3513C6.70312 10.8737 8.71159 8.86523 11.1892 8.86523C11.6594 8.86523 12.1118 8.93741 12.5365 9.07094C12.7999 9.15377 13.0806 9.00736 13.1634 8.74393C13.2463 8.48051 13.0998 8.19981 12.8364 8.11698C12.3158 7.95329 11.7623 7.86523 11.1892 7.86523Z" fill="#7A7D87"/>
<mask id="path-4-inside-1_6331_13954" fill="white">
<path fill-rule="evenodd" clip-rule="evenodd" d="M18.4493 2.10201C18.361 1.89822 18.0868 1.86326 17.9502 2.03836L15.7461 4.86398C15.6802 4.94837 15.6657 5.06198 15.7083 5.16019L16.2096 6.31745L11.084 12.8883C10.9448 13.0667 10.9766 13.324 11.155 13.4632C11.3333 13.6023 11.5907 13.5705 11.7298 13.3921L16.8555 6.82115L18.0997 7.02566C18.2054 7.04302 18.312 7.00132 18.3779 6.91692L20.582 4.09131C20.7186 3.9162 20.6179 3.65873 20.3988 3.62271L19.3742 3.4543C19.3749 3.33158 19.3208 3.20987 19.2165 3.12856C19.1123 3.04722 18.981 3.02431 18.8621 3.05495L18.4493 2.10201Z"/>
</mask>
<path fill-rule="evenodd" clip-rule="evenodd" d="M18.4493 2.10201C18.361 1.89822 18.0868 1.86326 17.9502 2.03836L15.7461 4.86398C15.6802 4.94837 15.6657 5.06198 15.7083 5.16019L16.2096 6.31745L11.084 12.8883C10.9448 13.0667 10.9766 13.324 11.155 13.4632C11.3333 13.6023 11.5907 13.5705 11.7298 13.3921L16.8555 6.82115L18.0997 7.02566C18.2054 7.04302 18.312 7.00132 18.3779 6.91692L20.582 4.09131C20.7186 3.9162 20.6179 3.65873 20.3988 3.62271L19.3742 3.4543C19.3749 3.33158 19.3208 3.20987 19.2165 3.12856C19.1123 3.04722 18.981 3.02431 18.8621 3.05495L18.4493 2.10201Z" fill="#252628"/>
<path d="M17.9502 2.03836L17.7195 1.85843L17.9502 2.03836ZM18.4493 2.10201L18.7177 1.98572L18.4493 2.10201ZM15.7461 4.86398L15.9767 5.04391L15.7461 4.86398ZM15.7083 5.16019L15.4398 5.27648L15.4398 5.27648L15.7083 5.16019ZM16.2096 6.31745L16.4403 6.49738L16.547 6.36048L16.478 6.20116L16.2096 6.31745ZM11.084 12.8883L11.3146 13.0683L11.084 12.8883ZM16.8555 6.82115L16.903 6.53248L16.7317 6.50432L16.6249 6.64122L16.8555 6.82115ZM18.0997 7.02566L18.0523 7.31433L18.0523 7.31433L18.0997 7.02566ZM20.3988 3.62271L20.3513 3.91138L20.3513 3.91138L20.3988 3.62271ZM19.3742 3.4543L19.0817 3.4525L19.0801 3.70243L19.3267 3.74297L19.3742 3.4543ZM18.8621 3.05495L18.5937 3.17124L18.693 3.40064L18.9351 3.33823L18.8621 3.05495ZM18.1809 2.21829L18.1809 2.21829L18.7177 1.98572C18.5412 1.57816 17.9927 1.50822 17.7195 1.85843L18.1809 2.21829ZM15.9767 5.04391L18.1809 2.21829L17.7195 1.85843L15.5154 4.68405L15.9767 5.04391ZM15.9767 5.04391L15.9767 5.04391L15.5154 4.68405C15.3837 4.85283 15.3548 5.08005 15.4398 5.27648L15.9767 5.04391ZM16.478 6.20116L15.9767 5.04391L15.4398 5.27648L15.9412 6.43373L16.478 6.20116ZM11.3146 13.0683L16.4403 6.49738L15.9789 6.13752L10.8533 12.7084L11.3146 13.0683ZM11.3349 13.2325C11.284 13.1927 11.2749 13.1192 11.3146 13.0683L10.8533 12.7084C10.6148 13.0141 10.6693 13.4553 10.9751 13.6938L11.3349 13.2325ZM11.4992 13.2122C11.4594 13.2632 11.3859 13.2722 11.3349 13.2325L10.9751 13.6938C11.2808 13.9323 11.722 13.8778 11.9605 13.5721L11.4992 13.2122ZM16.6249 6.64122L11.4992 13.2122L11.9605 13.5721L17.0862 7.00108L16.6249 6.64122ZM18.1472 6.73699L16.903 6.53248L16.8081 7.10982L18.0523 7.31433L18.1472 6.73699ZM18.1472 6.73699L18.1472 6.73699L18.0523 7.31433C18.2635 7.34905 18.4769 7.26564 18.6085 7.09685L18.1472 6.73699ZM20.3513 3.91138L18.1472 6.73699L18.6085 7.09685L20.8127 4.27124L20.3513 3.91138ZM20.3513 3.91138L20.3513 3.91138L20.8127 4.27124C21.0858 3.92102 20.8845 3.40608 20.4462 3.33404L20.3513 3.91138ZM19.3267 3.74297L20.3513 3.91138L20.4462 3.33404L19.4216 3.16563L19.3267 3.74297ZM19.0366 3.35922C19.0662 3.38235 19.0819 3.41664 19.0817 3.4525L19.6667 3.4561C19.668 3.24653 19.5753 3.0374 19.3965 2.8979L19.0366 3.35922ZM18.9351 3.33823C18.9699 3.32927 19.0069 3.33609 19.0366 3.35922L19.3965 2.8979C19.2176 2.75835 18.9921 2.71934 18.7891 2.77167L18.9351 3.33823ZM18.1809 2.21829L18.5937 3.17124L19.1305 2.93867L18.7177 1.98572L18.1809 2.21829Z" fill="#252628" mask="url(#path-4-inside-1_6331_13954)"/>
</svg>
