<svg width="24" height="24" viewBox="0 0 24 24" fill="none" xmlns="http://www.w3.org/2000/svg">
<rect x="5" y="10.5" width="14" height="8" fill="#FFE9CF"/>
<path fill-rule="evenodd" clip-rule="evenodd" d="M9.9001 4.99998C9.9001 4.50292 9.49715 4.09998 9.0001 4.09998C8.50304 4.09998 8.1001 4.50292 8.1001 4.99998V6.87903H6.0001C4.95076 6.87903 4.1001 7.72969 4.1001 8.77903V18C4.1001 19.0493 4.95076 19.9 6.0001 19.9H18.0001C19.0494 19.9 19.9001 19.0493 19.9001 18V8.77903C19.9001 7.72969 19.0494 6.87903 18.0001 6.87903H15.9001V4.99998C15.9001 4.50292 15.4972 4.09998 15.0001 4.09998C14.503 4.09998 14.1001 4.50292 14.1001 4.99998V6.87903H9.9001V4.99998ZM5.9001 18V11.7452C5.93293 11.7488 5.9663 11.7507 6.0001 11.7507L18.0001 11.7507C18.0339 11.7507 18.0673 11.7488 18.1001 11.7452V18C18.1001 18.0552 18.0553 18.1 18.0001 18.1H6.0001C5.94487 18.1 5.9001 18.0552 5.9001 18ZM15.382 13.8173C15.7286 13.461 15.7208 12.8912 15.3645 12.5446C15.0082 12.198 14.4384 12.2058 14.0918 12.5621L11.3208 15.4104L9.74193 14.4188C9.321 14.1544 8.76547 14.2814 8.50112 14.7023C8.23677 15.1232 8.3637 15.6788 8.78463 15.9431L10.9798 17.3217C11.3392 17.5474 11.8075 17.4914 12.1035 17.1871L15.382 13.8173Z" fill="#FFA740"/>
</svg>
