<svg width="16" height="16" viewBox="0 0 16 16" fill="none" xmlns="http://www.w3.org/2000/svg">
<g clip-path="url(#clip0_6331_15081)">
<path fill-rule="evenodd" clip-rule="evenodd" d="M7.39982 12.6667C7.39982 12.998 7.66845 13.2667 7.99982 13.2667C8.33119 13.2667 8.59982 12.998 8.59982 12.6667V8.59998H12.6665C12.9978 8.59998 13.2665 8.33134 13.2665 7.99998C13.2665 7.6686 12.9978 7.39998 12.6665 7.39998H8.59982V3.33331C8.59982 3.00194 8.33119 2.73331 7.99982 2.73331C7.66845 2.73331 7.39982 3.00194 7.39982 3.33331V7.39998H3.33315C3.00178 7.39998 2.73315 7.6686 2.73315 7.99998C2.73315 8.33134 3.00178 8.59998 3.33315 8.59998H7.39982V12.6667Z" fill="#E2E5EB"/>
</g>
<defs>
<clipPath id="clip0_6331_15081">
<rect width="11.3333" height="11.3333" fill="white" transform="translate(2.33325 2.33333)"/>
</clipPath>
</defs>
</svg>
