<svg width="24" height="24" viewBox="0 0 24 24" fill="none" xmlns="http://www.w3.org/2000/svg">
<g clip-path="url(#clip0_6331_13749)">
<path fill-rule="evenodd" clip-rule="evenodd" d="M14.2564 5.7668H10.6563C10.325 5.7668 10.0563 6.03543 10.0563 6.3668V15.3668C10.0563 15.6982 10.325 15.9668 10.6563 15.9668H17.6564C17.9878 15.9668 18.2564 15.6982 18.2564 15.3668V9.7669H15.1564C14.6593 9.7669 14.2564 9.36396 14.2564 8.8669V5.7668ZM20.0564 8.55723V8.55911V8.8669V15.3668C20.0564 16.6923 18.9819 17.7668 17.6564 17.7668H15.7402C15.6708 19.03 14.6244 20.0329 13.3438 20.0329H6.34385C5.01837 20.0329 3.94385 18.9584 3.94385 17.6329V8.63291C3.94385 7.30743 5.01837 6.23291 6.34385 6.23291H8.26002C8.32948 4.96971 9.37579 3.9668 10.6563 3.9668H15.52C15.5235 3.9668 15.5271 3.96682 15.5306 3.96686L16.0498 3.9668C16.3017 3.96677 16.5421 4.07235 16.7126 4.25789L19.8191 7.63901C19.9717 7.80508 20.0564 8.02239 20.0564 8.24792V8.55723ZM16.0564 7.9669V6.20413L17.676 7.9669H16.0564ZM10.6563 17.7668H13.9289C13.8681 18.0337 13.6292 18.2329 13.3438 18.2329H6.34385C6.01248 18.2329 5.74385 17.9643 5.74385 17.6329V8.63291C5.74385 8.30154 6.01248 8.03291 6.34385 8.03291H8.25635V15.3668C8.25635 16.6923 9.33087 17.7668 10.6563 17.7668Z" fill="#3A3B3E"/>
</g>
<defs>
<clipPath id="clip0_6331_13749">
<rect width="17" height="18" fill="white" transform="translate(3.5 3)"/>
</clipPath>
</defs>
</svg>
