<svg width="24" height="24" viewBox="0 0 24 24" fill="none" xmlns="http://www.w3.org/2000/svg">
<path fill-rule="evenodd" clip-rule="evenodd" d="M15.186 6.89808L6.9271 12.4546L10.9207 13.2761C10.9586 13.2839 10.9963 13.2926 11.0336 13.302L15.186 6.89808ZM12.4179 14.1996C12.4418 14.2299 12.4651 14.2607 12.4876 14.2921L14.8671 17.603L16.5703 7.79569L12.4179 14.1996ZM17.4348 3.39658C18.1046 2.94597 18.9877 3.51856 18.8495 4.31391L16.1939 19.6058C16.0549 20.4061 15.0206 20.6435 14.5465 19.9839L11.1479 15.255C11.0135 15.0681 10.8138 14.9386 10.5883 14.8921L4.88423 13.7188C4.0886 13.5551 3.88329 12.5139 4.5573 12.0604L17.4348 3.39658Z" fill="#4681F3"/>
</svg>
