<svg width="14" height="14" viewBox="0 0 14 14" fill="none" xmlns="http://www.w3.org/2000/svg">
<path fill-rule="evenodd" clip-rule="evenodd" d="M11.7855 7.00001C11.7855 9.64292 9.64295 11.7854 7.00004 11.7854C4.35712 11.7854 2.2146 9.64292 2.2146 7.00001C2.2146 4.35708 4.35712 2.21457 7.00004 2.21457C9.64295 2.21457 11.7855 4.35708 11.7855 7.00001ZM6.41204 4.414C6.41204 4.08922 6.67533 3.82594 7.0001 3.82594C7.32488 3.82594 7.58816 4.08922 7.58816 4.414V7.51544C7.58816 7.84024 7.32488 8.1035 7.0001 8.1035C6.67533 8.1035 6.41204 7.84024 6.41204 7.51544V4.414ZM7.00009 10.1741C7.35446 10.1741 7.64171 9.88681 7.64171 9.53243C7.64171 9.17806 7.35446 8.89083 7.00009 8.89083C6.64573 8.89083 6.35846 9.17806 6.35846 9.53243C6.35846 9.88681 6.64573 10.1741 7.00009 10.1741Z" fill="#E2E5EB"/>
</svg>
