<svg width="24" height="24" viewBox="0 0 24 24" fill="none" xmlns="http://www.w3.org/2000/svg">
<rect x="7" y="13.5" width="2.68359" height="5.31323" fill="#FFE9CF"/>
<path d="M6.54459 5.9952C6.58082 5.99239 6.61688 5.99051 6.65299 5.98655L14.5619 5.1213C15.1537 5.05656 15.6707 5.52003 15.6707 6.11537V12.817C15.6707 13.4123 15.1537 13.8758 14.5619 13.8111L6.65299 12.9458C6.61688 12.9419 6.58082 12.94 6.54459 12.9372C6.2002 12.9104 4.33081 12.6199 4.33081 9.46619C4.33081 6.31246 6.2002 6.02196 6.54459 5.9952Z" fill="#FFA740" stroke="#FFA740" stroke-width="1.8"/>
<path d="M6.76636 12.7161V18.5C6.76636 18.7761 6.99022 19 7.26636 19H9.18335C9.45949 19 9.68335 18.7761 9.68335 18.5V13.1644" stroke="#FFA740" stroke-width="1.8"/>
<path d="M17.9744 9.46631H19.6692" stroke="#FFA740" stroke-width="1.5" stroke-linecap="round" stroke-linejoin="round"/>
<path d="M17.9744 6.46631L19.6692 5.46631" stroke="#FFA740" stroke-width="1.5" stroke-linecap="round" stroke-linejoin="round"/>
<path d="M17.9744 12.4663L19.6692 13.4663" stroke="#FFA740" stroke-width="1.5" stroke-linecap="round" stroke-linejoin="round"/>
</svg>
