<svg width="24" height="24" viewBox="0 0 24 24" fill="none" xmlns="http://www.w3.org/2000/svg">
<path fill-rule="evenodd" clip-rule="evenodd" d="M7 3C4.79086 3 3 4.79086 3 7V17C3 19.2091 4.79086 21 7 21H17C19.2091 21 21 19.2091 21 17V7C21 4.79086 19.2091 3 17 3H7ZM16.613 10.014C16.8969 9.67548 16.8526 9.17089 16.514 8.887C16.1755 8.60311 15.6709 8.64742 15.387 8.98597L11.6744 13.4134L9.47111 11.808C9.11402 11.5478 8.61361 11.6263 8.35343 11.9834C8.09324 12.3405 8.1718 12.8409 8.52889 13.1011L11.3362 15.1466C11.6762 15.3943 12.15 15.3364 12.4203 15.014L16.613 10.014Z" fill="#E2E5EB"/>
</svg>
