<svg width="24" height="24" viewBox="0 0 24 24" fill="none" xmlns="http://www.w3.org/2000/svg">
<path fill-rule="evenodd" clip-rule="evenodd" d="M12 4C7.58172 4 4 7.58172 4 12C4 16.4183 7.58172 20 12 20C16.4183 20 20 16.4183 20 12C20 7.58172 16.4183 4 12 4ZM15.5418 8.6363C15.2489 8.3434 14.7741 8.3434 14.4812 8.6363L12.0891 11.0283L9.6971 8.6363C9.40421 8.3434 8.92934 8.3434 8.63644 8.6363C8.34355 8.92919 8.34355 9.40406 8.63644 9.69696L11.0285 12.089L8.63642 14.481C8.34353 14.7739 8.34353 15.2488 8.63642 15.5417C8.92931 15.8346 9.40419 15.8346 9.69708 15.5417L12.0891 13.1496L14.4812 15.5417C14.7741 15.8346 15.2489 15.8346 15.5418 15.5417C15.8347 15.2488 15.8347 14.7739 15.5418 14.481L13.1498 12.089L15.5418 9.69696C15.8347 9.40406 15.8347 8.92919 15.5418 8.6363Z" fill="#E2E5EB"/>
</svg>
