<svg width="375" height="327" viewBox="0 0 375 327" fill="none" xmlns="http://www.w3.org/2000/svg">
<rect width="375" height="327" fill="#D9D9D9"/>
<path d="M160.6 110.8H163.075V132.975H160.6V110.8ZM145.625 120.225C145.625 115.475 148 112.45 151.325 112.45C154.625 112.45 157 115.475 157 120.225C157 125.025 154.625 128.05 151.325 128.05C148 128.05 145.625 125.025 145.625 120.225ZM148 120.225C148 123.7 149.35 125.825 151.325 125.825C153.275 125.825 154.65 123.7 154.65 120.225C154.65 116.775 153.275 114.675 151.325 114.675C149.35 114.675 148 116.775 148 120.225ZM167.951 112.925H178.301V127.5H167.951V112.925ZM170.376 125.55H175.901V114.875H170.376V125.55ZM182.501 132.975V110.8H184.951V132.975H182.501ZM189.326 113.025H201.726V115.075H196.751V117.3C196.751 120.975 199.101 124.775 202.501 126.25L201.126 128.2C198.576 127.025 196.576 124.625 195.551 121.725C194.526 124.825 192.526 127.5 189.951 128.725L188.551 126.8C191.926 125.2 194.276 121.075 194.276 117.3V115.075H189.326V113.025ZM204.351 132.95V110.825H206.801V132.95H204.351ZM226.188 121.675C227.813 122.625 228.788 124.4 228.788 125.925C228.788 129 226.288 131.2 222.713 131.2C219.188 131.2 216.688 128.975 216.688 125.825H219.063C219.063 127.75 220.563 129.1 222.713 129.1C224.913 129.1 226.463 127.75 226.463 125.825C226.463 123.975 224.938 122.675 222.763 122.675H221.463V120.65H222.788C224.788 120.65 226.188 119.45 226.188 117.775C226.188 116.05 224.838 114.85 222.888 114.85C220.938 114.85 219.588 116.075 219.588 117.8H217.213C217.213 114.825 219.563 112.75 222.888 112.75C226.188 112.75 228.513 114.8 228.513 117.7C228.513 119.075 227.663 120.725 226.188 121.675Z" fill="black"/>
<path d="M123.6 168.975C123.6 165.75 124.875 161.5 126.65 158.675H129.2C127.175 161.475 125.75 165.725 125.75 168.975C125.75 172.225 127.175 176.475 129.2 179.275H126.65C124.875 176.45 123.6 172.2 123.6 168.975ZM140.35 176.25C144.325 176.25 147.05 173.3 147.05 168.975C147.05 164.65 144.325 161.7 140.35 161.7C136.35 161.7 133.65 164.65 133.65 168.975C133.65 173.3 136.35 176.25 140.35 176.25ZM131.275 168.975C131.275 163.475 135.025 159.625 140.35 159.625C145.675 159.625 149.425 163.475 149.425 168.975C149.425 174.475 145.675 178.325 140.35 178.325C135.025 178.325 131.275 174.475 131.275 168.975ZM160.543 174.425L154.943 164.325V178.125H152.593V159.825H155.093L161.618 171.5L168.118 159.825H170.668V178.125H168.293V164.325L162.693 174.425H160.543ZM191.896 168.575C191.896 169.2 191.871 169.95 191.871 170.125C191.871 175.3 188.296 178.25 183.296 178.325C177.971 178.325 174.221 174.475 174.221 168.975C174.221 163.5 177.971 159.65 183.296 159.65C188.996 159.65 190.996 164.05 190.996 164.05L188.946 165.075C188.946 165.075 187.496 161.725 183.296 161.725C179.296 161.725 176.571 164.675 176.571 168.975C176.571 173.3 179.296 176.25 183.296 176.25C186.846 176.125 189.571 174.35 189.571 170.575H183.596V168.575H191.896ZM212.11 161.55H216.635V157.825H219.085V169.175H216.635V163.525H212.11V161.55ZM200.71 167.325C204.16 166.225 206.11 163.475 206.11 160.4V158.525H208.56V160.4C208.56 163.175 210.51 165.825 213.785 166.9L212.535 168.8C210.135 167.975 208.36 166.325 207.385 164.25C206.435 166.575 204.56 168.375 201.985 169.25L200.71 167.325ZM204.71 172.15V170.225H219.085V175.775H207.16V177.75H219.835V179.675H204.735V173.975H216.66V172.15H204.71ZM238.51 157.825H240.96V170.875H238.51V167.65H233.86V169.425H223.635V159.45H233.86V161.25H238.51V157.825ZM226.035 167.5H231.46V161.425H226.035V167.5ZM226.135 175.7C226.135 173.05 228.985 171.475 233.61 171.475C238.21 171.475 241.06 173.05 241.06 175.7C241.06 178.4 238.21 179.925 233.61 179.925C228.985 179.925 226.135 178.4 226.135 175.7ZM228.61 175.7C228.61 177.175 230.435 178.025 233.61 178.025C236.76 178.025 238.61 177.175 238.61 175.7C238.61 174.225 236.76 173.4 233.61 173.4C230.435 173.4 228.61 174.225 228.61 175.7ZM233.86 165.675H238.51V163.25H233.86V165.675ZM250.836 168.975C250.836 172.2 249.586 176.425 247.811 179.275H245.261C247.261 176.5 248.686 172.225 248.686 168.975C248.686 165.725 247.261 161.45 245.261 158.675H247.811C249.586 161.525 250.836 165.75 250.836 168.975Z" fill="black"/>
<path d="M105.603 215.81C108.306 215.81 110.159 213.804 110.159 210.863C110.159 207.922 108.306 205.916 105.603 205.916C102.883 205.916 101.047 207.922 101.047 210.863C101.047 213.804 102.883 215.81 105.603 215.81ZM99.4317 210.863C99.4317 207.123 101.982 204.505 105.603 204.505C109.224 204.505 111.774 207.123 111.774 210.863C111.774 214.603 109.224 217.221 105.603 217.221C101.982 217.221 99.4317 214.603 99.4317 210.863ZM119.334 214.569L115.526 207.701V217.085H113.928V204.641H115.628L120.065 212.58L124.485 204.641H126.219V217.085H124.604V207.701L120.796 214.569H119.334ZM140.654 210.591C140.654 211.016 140.637 211.526 140.637 211.645C140.637 215.164 138.206 217.17 134.806 217.221C131.185 217.221 128.635 214.603 128.635 210.863C128.635 207.14 131.185 204.522 134.806 204.522C138.682 204.522 140.042 207.514 140.042 207.514L138.648 208.211C138.648 208.211 137.662 205.933 134.806 205.933C132.086 205.933 130.233 207.939 130.233 210.863C130.233 213.804 132.086 215.81 134.806 215.81C137.22 215.725 139.073 214.518 139.073 211.951H135.01V210.591H140.654ZM146.681 212.325H160.315V213.702H154.331V218.343H152.648V213.702H146.681V212.325ZM148.466 210.965V203.961H158.666V205.287H150.115V206.766H158.326V208.075H150.115V209.622H158.836V210.965H148.466ZM163.393 204.131H173.355V205.491H165.076V208.789H173.542V210.132H163.393V204.131ZM161.574 213.277V211.9H175.208V213.277H169.173V218.309H167.507V213.277H161.574ZM180.741 204.267H188.816V205.627H185.637V205.933C185.637 207.854 186.929 209.673 189.224 210.455L188.357 211.764C186.691 211.186 185.484 210.03 184.821 208.568C184.175 210.166 182.9 211.424 181.149 212.036L180.248 210.727C182.611 209.945 183.971 207.99 183.971 205.95V205.627H180.741V204.267ZM182.254 214.433V213.09H192.114V218.326H190.448V214.433H182.254ZM190.448 212.325V203.281H192.114V207.123H194.256V208.517H192.114V212.325H190.448ZM198.931 204.114H200.597V205.508C200.597 207.582 201.889 209.469 204.15 210.217L203.266 211.526C201.634 210.948 200.461 209.809 199.798 208.33C199.152 210.013 197.86 211.322 196.058 211.985L195.191 210.625C197.571 209.809 198.931 207.803 198.931 205.576V204.114ZM197.605 215.436C197.605 213.634 199.56 212.563 202.705 212.563C205.833 212.563 207.754 213.634 207.754 215.436C207.754 217.272 205.833 218.309 202.705 218.309C199.56 218.309 197.605 217.272 197.605 215.436ZM199.305 215.436C199.305 216.439 200.529 217.017 202.705 217.017C204.83 217.017 206.105 216.439 206.105 215.436C206.105 214.433 204.83 213.872 202.705 213.872C200.529 213.872 199.305 214.433 199.305 215.436ZM202.943 207.684V206.29H206.02V203.281H207.686V212.155H206.02V207.684H202.943ZM224.797 203.281H226.463V218.326H224.797V203.281ZM214.189 214.297C218.15 212.393 220.003 209.724 220.309 206.222H214.903V204.862H222.026C222.026 209.316 220.224 213.107 215.056 215.623L214.189 214.297ZM230.747 203.57H232.413V207.293H241.015V208.653H230.747V203.57ZM228.962 211.577V210.217H242.545V211.577H228.962ZM230.543 215.521C230.543 213.77 232.498 212.784 235.728 212.784C238.941 212.784 240.896 213.77 240.896 215.521C240.896 217.272 238.941 218.292 235.728 218.292C232.498 218.292 230.543 217.272 230.543 215.521ZM232.226 215.521C232.226 216.473 233.501 216.983 235.728 216.983C237.955 216.983 239.213 216.473 239.213 215.521C239.213 214.569 237.955 214.059 235.728 214.059C233.501 214.059 232.226 214.569 232.226 215.521ZM255.456 205.814H258.533V203.281H260.199V210.999H258.533V207.157H255.456V205.814ZM247.704 209.741C250.05 208.993 251.376 207.123 251.376 205.032V203.757H253.042V205.032C253.042 206.919 254.368 208.721 256.595 209.452L255.745 210.744C254.113 210.183 252.906 209.061 252.243 207.65C251.597 209.231 250.322 210.455 248.571 211.05L247.704 209.741ZM250.424 213.022V211.713H260.199V215.487H252.09V216.83H260.709V218.139H250.441V214.263H258.55V213.022H250.424ZM273.409 203.281H275.075V212.155H273.409V209.962H270.247V211.169H263.294V204.386H270.247V205.61H273.409V203.281ZM264.926 209.86H268.615V205.729H264.926V209.86ZM264.994 215.436C264.994 213.634 266.932 212.563 270.077 212.563C273.205 212.563 275.143 213.634 275.143 215.436C275.143 217.272 273.205 218.309 270.077 218.309C266.932 218.309 264.994 217.272 264.994 215.436ZM266.677 215.436C266.677 216.439 267.918 217.017 270.077 217.017C272.219 217.017 273.477 216.439 273.477 215.436C273.477 214.433 272.219 213.872 270.077 213.872C267.918 213.872 266.677 214.433 266.677 215.436ZM270.247 208.619H273.409V206.97H270.247V208.619Z" fill="black"/>
</svg>
