<svg width="18" height="18" viewBox="0 0 18 18" fill="none" xmlns="http://www.w3.org/2000/svg">
<path fill-rule="evenodd" clip-rule="evenodd" d="M8.32495 14.25C8.32495 14.6228 8.62716 14.925 8.99995 14.925C9.37275 14.925 9.67495 14.6228 9.67495 14.25V9.67499H14.25C14.6227 9.67499 14.925 9.37277 14.925 8.99999C14.925 8.62719 14.6227 8.32499 14.25 8.32499H9.67495V3.74998C9.67495 3.37719 9.37275 3.07498 8.99995 3.07498C8.62716 3.07498 8.32495 3.37719 8.32495 3.74998V8.32499H3.74995C3.37716 8.32499 3.07495 8.62719 3.07495 8.99999C3.07495 9.37277 3.37716 9.67499 3.74995 9.67499H8.32495V14.25Z" fill="#4681F3"/>
</svg>
