<svg width="24" height="24" viewBox="0 0 24 24" fill="none" xmlns="http://www.w3.org/2000/svg">
<g clip-path="url(#clip0_6331_14210)">
<path fill-rule="evenodd" clip-rule="evenodd" d="M12.6365 4.28025C12.285 3.92878 11.7152 3.92878 11.3637 4.28025L7.49725 8.14671C7.14578 8.49818 7.14578 9.06803 7.49725 9.4195C7.84872 9.77098 8.41857 9.77098 8.77004 9.4195L11.1001 7.08944V13.3766C11.1001 13.8737 11.503 14.2767 12.0001 14.2767C12.4972 14.2767 12.9001 13.8737 12.9001 13.3766V7.08944L15.2302 9.4195C15.5817 9.77098 16.1515 9.77098 16.503 9.4195C16.8545 9.06803 16.8545 8.49818 16.503 8.14671L12.6365 4.28025ZM5.21982 11.0123C5.71688 11.0123 6.11983 11.4152 6.11983 11.9123V18.1834H17.8804V11.9123C17.8804 11.4152 18.2833 11.0123 18.7804 11.0123C19.2775 11.0123 19.6804 11.4152 19.6804 11.9123V19.0834C19.6804 19.5805 19.2775 19.9834 18.7804 19.9834H5.21982C4.72277 19.9834 4.31982 19.5805 4.31982 19.0834V11.9123C4.31982 11.4152 4.72277 11.0123 5.21982 11.0123Z" fill="#3A3B3E"/>
</g>
<defs>
<clipPath id="clip0_6331_14210">
<rect width="16" height="16" fill="white" transform="translate(4 4)"/>
</clipPath>
</defs>
</svg>
