<svg width="44" height="44" viewBox="0 0 44 44" fill="none" xmlns="http://www.w3.org/2000/svg">
<circle cx="34.3315" cy="14.686" r="1.93481" fill="#FFA740"/>
<path fill-rule="evenodd" clip-rule="evenodd" d="M26.7087 14.8145C26.8051 14.81 26.9023 14.8077 27.0002 14.8077C27.0978 14.8077 27.1939 14.8095 27.2886 14.8131C27.2755 14.8026 27.2623 14.7936 27.2489 14.7858C27.2053 14.7605 27.1309 14.7312 26.9995 14.7312C26.8681 14.7312 26.7937 14.7605 26.7501 14.7858C26.7361 14.794 26.7223 14.8034 26.7087 14.8145ZM28.9961 15.099C30.2265 15.488 31.116 16.2259 31.7292 17.0626C32.6054 18.2585 32.9052 19.6349 32.9052 20.4282V25.0153L34.436 26.7508C34.631 26.9719 34.6784 27.2868 34.5571 27.5555C34.4358 27.8242 34.1683 27.9969 33.8735 27.9969H30.3377C30.2458 28.4499 30.0647 28.9516 29.7497 29.4065C29.2159 30.1771 28.3234 30.7689 26.9998 30.7689C25.6762 30.7689 24.7837 30.1771 24.2499 29.4065C23.9349 28.9516 23.7537 28.4499 23.6619 27.9969H20.127C19.8321 27.9969 19.5647 27.8242 19.4434 27.5555C19.3221 27.2868 19.3695 26.9719 19.5645 26.7508L21.0953 25.0153V20.4282C21.0953 18.1728 22.6515 15.9662 24.9973 15.1444C25.0327 14.8329 25.1342 14.4548 25.3537 14.1117C25.666 13.6238 26.2088 13.2312 26.9995 13.2312C27.7902 13.2312 28.3331 13.6238 28.6453 14.1117C28.8543 14.4382 28.9563 14.7966 28.9961 15.099ZM28.5166 28.5524C28.6367 28.3789 28.7255 28.187 28.7885 27.9969H25.2111C25.2741 28.187 25.3629 28.3789 25.483 28.5524C25.7492 28.9367 26.19 29.2689 26.9998 29.2689C27.8095 29.2689 28.2504 28.9367 28.5166 28.5524ZM32.212 26.4969H29.6664H24.3331H21.7885L22.4078 25.7949C22.5286 25.6578 22.5953 25.4814 22.5953 25.2987V20.4282C22.5953 18.4069 24.4077 16.3077 27.0002 16.3077C28.8076 16.3077 29.8777 17.0738 30.5192 17.9492C31.1895 18.864 31.4052 19.9228 31.4052 20.4282V25.2987C31.4052 25.4814 31.4719 25.6578 31.5927 25.7949L32.212 26.4969Z" fill="#3A3B3E"/>
</svg>
