<svg width="24" height="24" viewBox="0 0 24 24" fill="none" xmlns="http://www.w3.org/2000/svg">
<path d="M5.38818 5.02271H13V11.0438H18.7461V11.5V18.4294H5.38818V5.02271Z" fill="#FFE9CF"/>
<path d="M16.7266 4.60059L19.4103 7.28431L17.525 9.16963L12.8941 13.8005L10.4288 13.5821L10.2104 11.1168L14.8412 6.48591L16.7266 4.60059Z" fill="#FFE9CF"/>
<path d="M14.8412 6.48591L10.2104 11.1168L10.4288 13.5821L12.8941 13.8005L17.525 9.16963M14.8412 6.48591L16.7266 4.60059L19.4103 7.28431L17.525 9.16963M14.8412 6.48591L17.525 9.16963" stroke="#FFA740" stroke-width="1.8" stroke-linecap="round" stroke-linejoin="round"/>
<path d="M12.5 5H12H6.5C5.67157 5 5 5.67157 5 6.5V17.5C5 18.3284 5.67157 19 6.5 19H17.5C18.3284 19 19 18.3284 19 17.5V11.5" stroke="#FFA740" stroke-width="1.8" stroke-linecap="round" stroke-linejoin="round"/>
</svg>
