<svg width="375" height="327" viewBox="0 0 375 327" fill="none" xmlns="http://www.w3.org/2000/svg">
<rect width="375" height="327" fill="#D9D9D9"/>
<path d="M161.1 110.8H163.575V132.975H161.1V110.8ZM146.125 120.225C146.125 115.475 148.5 112.45 151.825 112.45C155.125 112.45 157.5 115.475 157.5 120.225C157.5 125.025 155.125 128.05 151.825 128.05C148.5 128.05 146.125 125.025 146.125 120.225ZM148.5 120.225C148.5 123.7 149.85 125.825 151.825 125.825C153.775 125.825 155.15 123.7 155.15 120.225C155.15 116.775 153.775 114.675 151.825 114.675C149.85 114.675 148.5 116.775 148.5 120.225ZM168.451 112.925H178.801V127.5H168.451V112.925ZM170.876 125.55H176.401V114.875H170.876V125.55ZM183.001 132.975V110.8H185.451V132.975H183.001ZM189.826 113.025H202.226V115.075H197.251V117.3C197.251 120.975 199.601 124.775 203.001 126.25L201.626 128.2C199.076 127.025 197.076 124.625 196.051 121.725C195.026 124.825 193.026 127.5 190.451 128.725L189.051 126.8C192.426 125.2 194.776 121.075 194.776 117.3V115.075H189.826V113.025ZM204.851 132.95V110.825H207.301V132.95H204.851ZM217.463 128.975C221.088 125.475 226.213 121.65 226.213 118.525C226.213 116.375 224.863 114.85 222.913 114.85C221.463 114.85 219.988 115.925 219.313 117.45L217.213 116.55C218.188 114.275 220.563 112.7 222.913 112.7C226.263 112.7 228.588 115.1 228.588 118.525C228.588 122.35 224.213 125.95 220.763 128.975H228.888V131.05H217.713L217.463 128.975Z" fill="black"/>
<path d="M123.6 168.975C123.6 165.75 124.875 161.5 126.65 158.675H129.2C127.175 161.475 125.75 165.725 125.75 168.975C125.75 172.225 127.175 176.475 129.2 179.275H126.65C124.875 176.45 123.6 172.2 123.6 168.975ZM140.35 176.25C144.325 176.25 147.05 173.3 147.05 168.975C147.05 164.65 144.325 161.7 140.35 161.7C136.35 161.7 133.65 164.65 133.65 168.975C133.65 173.3 136.35 176.25 140.35 176.25ZM131.275 168.975C131.275 163.475 135.025 159.625 140.35 159.625C145.675 159.625 149.425 163.475 149.425 168.975C149.425 174.475 145.675 178.325 140.35 178.325C135.025 178.325 131.275 174.475 131.275 168.975ZM160.543 174.425L154.943 164.325V178.125H152.593V159.825H155.093L161.618 171.5L168.118 159.825H170.668V178.125H168.293V164.325L162.693 174.425H160.543ZM191.896 168.575C191.896 169.2 191.871 169.95 191.871 170.125C191.871 175.3 188.296 178.25 183.296 178.325C177.971 178.325 174.221 174.475 174.221 168.975C174.221 163.5 177.971 159.65 183.296 159.65C188.996 159.65 190.996 164.05 190.996 164.05L188.946 165.075C188.946 165.075 187.496 161.725 183.296 161.725C179.296 161.725 176.571 164.675 176.571 168.975C176.571 173.3 179.296 176.25 183.296 176.25C186.846 176.125 189.571 174.35 189.571 170.575H183.596V168.575H191.896ZM212.11 161.55H216.635V157.825H219.085V169.175H216.635V163.525H212.11V161.55ZM200.71 167.325C204.16 166.225 206.11 163.475 206.11 160.4V158.525H208.56V160.4C208.56 163.175 210.51 165.825 213.785 166.9L212.535 168.8C210.135 167.975 208.36 166.325 207.385 164.25C206.435 166.575 204.56 168.375 201.985 169.25L200.71 167.325ZM204.71 172.15V170.225H219.085V175.775H207.16V177.75H219.835V179.675H204.735V173.975H216.66V172.15H204.71ZM238.51 157.825H240.96V170.875H238.51V167.65H233.86V169.425H223.635V159.45H233.86V161.25H238.51V157.825ZM226.035 167.5H231.46V161.425H226.035V167.5ZM226.135 175.7C226.135 173.05 228.985 171.475 233.61 171.475C238.21 171.475 241.06 173.05 241.06 175.7C241.06 178.4 238.21 179.925 233.61 179.925C228.985 179.925 226.135 178.4 226.135 175.7ZM228.61 175.7C228.61 177.175 230.435 178.025 233.61 178.025C236.76 178.025 238.61 177.175 238.61 175.7C238.61 174.225 236.76 173.4 233.61 173.4C230.435 173.4 228.61 174.225 228.61 175.7ZM233.86 165.675H238.51V163.25H233.86V165.675ZM250.836 168.975C250.836 172.2 249.586 176.425 247.811 179.275H245.261C247.261 176.5 248.686 172.225 248.686 168.975C248.686 165.725 247.261 161.45 245.261 158.675H247.811C249.586 161.525 250.836 165.75 250.836 168.975Z" fill="black"/>
<path d="M105.603 215.81C108.306 215.81 110.159 213.804 110.159 210.863C110.159 207.922 108.306 205.916 105.603 205.916C102.883 205.916 101.047 207.922 101.047 210.863C101.047 213.804 102.883 215.81 105.603 215.81ZM99.4317 210.863C99.4317 207.123 101.982 204.505 105.603 204.505C109.224 204.505 111.774 207.123 111.774 210.863C111.774 214.603 109.224 217.221 105.603 217.221C101.982 217.221 99.4317 214.603 99.4317 210.863ZM119.334 214.569L115.526 207.701V217.085H113.928V204.641H115.628L120.065 212.58L124.485 204.641H126.219V217.085H124.604V207.701L120.796 214.569H119.334ZM140.654 210.591C140.654 211.016 140.637 211.526 140.637 211.645C140.637 215.164 138.206 217.17 134.806 217.221C131.185 217.221 128.635 214.603 128.635 210.863C128.635 207.14 131.185 204.522 134.806 204.522C138.682 204.522 140.042 207.514 140.042 207.514L138.648 208.211C138.648 208.211 137.662 205.933 134.806 205.933C132.086 205.933 130.233 207.939 130.233 210.863C130.233 213.804 132.086 215.81 134.806 215.81C137.22 215.725 139.073 214.518 139.073 211.951H135.01V210.591H140.654ZM157.918 203.281H159.516V218.326H157.918V210.591H156.082V217.561H154.535V203.587H156.082V209.214H157.918V203.281ZM147.208 214.739V205.083H152.75V206.443H148.84V213.345C150.591 213.328 151.968 213.243 153.532 212.937L153.702 214.314C151.883 214.671 150.336 214.739 148.194 214.739H147.208ZM162.22 204.607H169.241V205.984H163.886V208.806H168.952V210.132H163.886V213.413C166.351 213.413 168.17 213.345 170.278 212.988L170.448 214.331C168.153 214.705 166.147 214.79 163.41 214.79H162.22V204.607ZM171.553 218.326V203.281H173.236V209.197H175.582V210.591H173.236V218.326H171.553ZM180.384 215.096H183.597V211.169C182.39 210.489 181.659 209.401 181.659 208.075C181.659 205.678 183.988 204.131 187.184 204.131C190.397 204.131 192.709 205.678 192.709 208.075C192.709 209.401 191.995 210.472 190.788 211.169V215.096H194.018V216.456H180.384V215.096ZM183.291 208.075C183.291 209.69 184.889 210.693 187.184 210.693C189.462 210.693 191.077 209.69 191.077 208.075C191.077 206.46 189.462 205.457 187.184 205.457C184.889 205.457 183.291 206.46 183.291 208.075ZM185.263 215.096H189.122V211.798C188.527 211.934 187.881 212.002 187.184 212.002C186.504 212.002 185.858 211.934 185.263 211.798V215.096ZM195.65 204.998H198.863V203.213H200.529V204.998H203.708V206.324H200.529V206.477C200.529 208.245 201.889 209.877 204.184 210.523L203.419 211.815C201.685 211.322 200.41 210.268 199.73 208.925C199.067 210.438 197.792 211.628 196.024 212.189L195.225 210.88C197.52 210.183 198.863 208.381 198.863 206.477V206.324H195.65V204.998ZM197.622 215.504C197.622 213.753 199.56 212.733 202.705 212.733C205.833 212.733 207.754 213.753 207.754 215.504C207.754 217.272 205.833 218.309 202.705 218.309C199.56 218.309 197.622 217.272 197.622 215.504ZM199.305 215.504C199.305 216.473 200.529 217.017 202.705 217.017C204.847 217.017 206.105 216.473 206.105 215.504C206.105 214.552 204.847 214.008 202.705 214.008C200.529 214.008 199.305 214.552 199.305 215.504ZM203.266 208.823V207.463H206.037V203.281H207.703V212.376H206.037V208.823H203.266ZM224.797 203.281H226.463V218.326H224.797V203.281ZM214.189 214.297C218.15 212.393 220.003 209.724 220.309 206.222H214.903V204.862H222.026C222.026 209.316 220.224 213.107 215.056 215.623L214.189 214.297ZM230.747 203.57H232.413V207.293H241.015V208.653H230.747V203.57ZM228.962 211.577V210.217H242.545V211.577H228.962ZM230.543 215.521C230.543 213.77 232.498 212.784 235.728 212.784C238.941 212.784 240.896 213.77 240.896 215.521C240.896 217.272 238.941 218.292 235.728 218.292C232.498 218.292 230.543 217.272 230.543 215.521ZM232.226 215.521C232.226 216.473 233.501 216.983 235.728 216.983C237.955 216.983 239.213 216.473 239.213 215.521C239.213 214.569 237.955 214.059 235.728 214.059C233.501 214.059 232.226 214.569 232.226 215.521ZM255.456 205.814H258.533V203.281H260.199V210.999H258.533V207.157H255.456V205.814ZM247.704 209.741C250.05 208.993 251.376 207.123 251.376 205.032V203.757H253.042V205.032C253.042 206.919 254.368 208.721 256.595 209.452L255.745 210.744C254.113 210.183 252.906 209.061 252.243 207.65C251.597 209.231 250.322 210.455 248.571 211.05L247.704 209.741ZM250.424 213.022V211.713H260.199V215.487H252.09V216.83H260.709V218.139H250.441V214.263H258.55V213.022H250.424ZM273.409 203.281H275.075V212.155H273.409V209.962H270.247V211.169H263.294V204.386H270.247V205.61H273.409V203.281ZM264.926 209.86H268.615V205.729H264.926V209.86ZM264.994 215.436C264.994 213.634 266.932 212.563 270.077 212.563C273.205 212.563 275.143 213.634 275.143 215.436C275.143 217.272 273.205 218.309 270.077 218.309C266.932 218.309 264.994 217.272 264.994 215.436ZM266.677 215.436C266.677 216.439 267.918 217.017 270.077 217.017C272.219 217.017 273.477 216.439 273.477 215.436C273.477 214.433 272.219 213.872 270.077 213.872C267.918 213.872 266.677 214.433 266.677 215.436ZM270.247 208.619H273.409V206.97H270.247V208.619Z" fill="black"/>
</svg>
