<svg width="24" height="24" viewBox="0 0 24 24" fill="none" xmlns="http://www.w3.org/2000/svg">
<path d="M6.82275 12.2857C7.35775 10.8801 8.66934 9.93692 9.99819 10.0109C10.5332 10.0664 11.258 10.3253 11.7412 10.6582L13.1909 11.6199C13.467 11.8049 13.8294 11.9528 14.0365 11.9528C14.5888 11.9898 15.1583 11.546 15.3999 10.8616L17.1774 11.6014C16.6424 13.081 15.2963 14.0797 13.9157 13.9872C13.4325 13.9502 12.7249 13.7098 12.2072 13.3584L10.723 12.3782C10.4642 12.2118 10.119 12.0638 9.87739 12.0453C9.35965 12.0268 8.8074 12.4522 8.58305 13.0625L6.82275 12.2857Z" fill="#A2C0F9"/>
</svg>
