<svg width="44" height="44" viewBox="0 0 44 44" fill="none" xmlns="http://www.w3.org/2000/svg">
<path fill-rule="evenodd" clip-rule="evenodd" d="M9.1001 15.0001C9.1001 14.503 9.50304 14.1001 10.0001 14.1001H24.0001C24.4972 14.1001 24.9001 14.503 24.9001 15.0001C24.9001 15.4972 24.4972 15.9001 24.0001 15.9001H10.0001C9.50304 15.9001 9.1001 15.4972 9.1001 15.0001ZM9.1001 29.0001C9.1001 28.503 9.50304 28.1001 10.0001 28.1001H24.0001C24.4972 28.1001 24.9001 28.503 24.9001 29.0001C24.9001 29.4971 24.4972 29.9001 24.0001 29.9001H10.0001C9.50304 29.9001 9.1001 29.4971 9.1001 29.0001ZM10.0001 21.1001C9.50304 21.1001 9.1001 21.503 9.1001 22.0001C9.1001 22.4972 9.50304 22.9001 10.0001 22.9001H24.0001C24.4972 22.9001 24.9001 22.4972 24.9001 22.0001C24.9001 21.503 24.4972 21.1001 24.0001 21.1001H10.0001Z" fill="#3A3B3E"/>
</svg>
