<svg width="44" height="44" viewBox="0 0 44 44" fill="none" xmlns="http://www.w3.org/2000/svg">
<path fill-rule="evenodd" clip-rule="evenodd" d="M26.709 14.8143C26.8053 14.8098 26.9025 14.8076 27.0005 14.8076C27.098 14.8076 27.1941 14.8094 27.2888 14.8129C27.2758 14.8025 27.2625 14.7934 27.2491 14.7857C27.2056 14.7604 27.1311 14.731 26.9997 14.731C26.8684 14.731 26.7939 14.7604 26.7503 14.7857C26.7364 14.7938 26.7226 14.8032 26.709 14.8143ZM28.9963 15.0988C30.2267 15.4878 31.1163 16.2257 31.7294 17.0625C32.6056 18.2583 32.9054 19.6347 32.9054 20.4281V25.0151L34.4362 26.7507C34.6312 26.9718 34.6786 27.2866 34.5573 27.5553C34.436 27.824 34.1686 27.9968 33.8737 27.9968H30.338C30.2461 28.4497 30.065 28.9514 29.7499 29.4063C29.2161 30.177 28.3236 30.7687 27 30.7687C25.6765 30.7687 24.784 30.177 24.2502 29.4063C23.9351 28.9514 23.754 28.4497 23.6621 27.9968H20.1272C19.8324 27.9968 19.5649 27.824 19.4436 27.5553C19.3223 27.2866 19.3697 26.9718 19.5647 26.7507L21.0955 25.0151V20.4281C21.0955 18.1726 22.6517 15.966 24.9976 15.1442C25.0329 14.8327 25.1344 14.4546 25.354 14.1115C25.6662 13.6237 26.209 13.231 26.9997 13.231C27.7905 13.231 28.3333 13.6237 28.6455 14.1115C28.8545 14.4381 28.9565 14.7964 28.9963 15.0988ZM28.5168 28.5522C28.637 28.3787 28.7258 28.1868 28.7887 27.9968H25.2114C25.2743 28.1868 25.3631 28.3787 25.4833 28.5522C25.7495 28.9365 26.1903 29.2687 27 29.2687C27.8098 29.2687 28.2506 28.9365 28.5168 28.5522ZM32.2122 26.4968H29.6667H24.3334H21.7888L22.408 25.7947C22.5288 25.6577 22.5955 25.4812 22.5955 25.2986V20.4281C22.5955 18.4067 24.4079 16.3076 27.0005 16.3076C28.8078 16.3076 29.878 17.0736 30.5195 17.949C31.1897 18.8638 31.4054 19.9226 31.4054 20.4281V25.2986C31.4054 25.4812 31.4721 25.6577 31.593 25.7947L32.2122 26.4968Z" fill="#3A3B3E"/>
</svg>
