<svg width="18" height="18" viewBox="0 0 18 18" fill="none" xmlns="http://www.w3.org/2000/svg">
<g clip-path="url(#clip0_6331_13732)">
<path fill-rule="evenodd" clip-rule="evenodd" d="M12.4678 4.5774C12.7314 4.3138 13.1588 4.3138 13.4224 4.5774C13.686 4.84101 13.686 5.26839 13.4224 5.532L9.95447 8.99991L13.4227 12.4681C13.6863 12.7317 13.6863 13.1591 13.4227 13.4227C13.159 13.6863 12.7317 13.6863 12.4681 13.4227L8.99988 9.9545L5.53169 13.4227C5.26808 13.6863 4.8407 13.6863 4.5771 13.4227C4.31349 13.1591 4.31349 12.7317 4.5771 12.4681L8.04529 8.99991L4.57738 5.532C4.31377 5.26839 4.31377 4.84101 4.57738 4.5774C4.84098 4.3138 5.26837 4.3138 5.53197 4.5774L8.99988 8.04531L12.4678 4.5774Z" fill="#BDC1C8"/>
</g>
<defs>
<clipPath id="clip0_6331_13732">
<rect width="9.75" height="9.75" fill="white" transform="translate(4.125 4.125)"/>
</clipPath>
</defs>
</svg>
