<svg width="24" height="24" viewBox="0 0 24 24" fill="none" xmlns="http://www.w3.org/2000/svg">
<circle cx="12" cy="12" r="7.34277" fill="#FFE9CF" stroke="#FFA740" stroke-width="1.8"/>
<path fill-rule="evenodd" clip-rule="evenodd" d="M5.55732 12C5.55732 8.44176 8.44185 5.55723 12.0001 5.55723C15.5583 5.55723 18.4429 8.44176 18.4429 12C18.4429 13.2709 18.0749 14.4559 17.4396 15.4542C16.7156 14.0321 14.5541 13 12.0001 13C9.44611 13 7.28457 14.032 6.56058 15.4542C5.92532 14.4559 5.55732 13.2709 5.55732 12ZM12.0001 3.75723C7.44774 3.75723 3.75732 7.44765 3.75732 12C3.75732 16.5524 7.44774 20.2428 12.0001 20.2428C16.5525 20.2428 20.2429 16.5524 20.2429 12C20.2429 7.44765 16.5525 3.75723 12.0001 3.75723ZM14.5216 9.47852C14.5216 10.8711 13.3927 12 12.0001 12C10.6075 12 9.47861 10.8711 9.47861 9.47852C9.47861 8.08594 10.6075 6.95704 12.0001 6.95704C13.3927 6.95704 14.5216 8.08594 14.5216 9.47852Z" fill="#FFA740"/>
</svg>
