<svg width="16" height="16" viewBox="0 0 16 16" fill="none" xmlns="http://www.w3.org/2000/svg">
<g clip-path="url(#clip0_6331_13752)">
<path fill-rule="evenodd" clip-rule="evenodd" d="M11.0827 4.0688C11.3171 3.83449 11.697 3.83449 11.9313 4.0688C12.1656 4.30312 12.1656 4.68301 11.9313 4.91733L8.84869 7.99992L11.9315 11.0827C12.1659 11.3171 12.1659 11.697 11.9315 11.9313C11.6972 12.1656 11.3173 12.1656 11.083 11.9313L8.00017 8.84845L4.91733 11.9313C4.68301 12.1656 4.30312 12.1656 4.0688 11.9313C3.83449 11.697 3.83449 11.3171 4.0688 11.0827L7.15164 7.99992L4.06905 4.91733C3.83474 4.68301 3.83474 4.30312 4.06905 4.0688C4.30337 3.83449 4.68327 3.83449 4.91758 4.0688L8.00017 7.15139L11.0827 4.0688Z" fill="#91959D"/>
</g>
<defs>
<clipPath id="clip0_6331_13752">
<rect width="8.66667" height="8.66667" fill="white" transform="translate(3.66675 3.66667)"/>
</clipPath>
</defs>
</svg>
