<svg width="44" height="44" viewBox="0 0 44 44" fill="none" xmlns="http://www.w3.org/2000/svg">
<g clip-path="url(#clip0_6331_14814)">
<path fill-rule="evenodd" clip-rule="evenodd" d="M19.8674 15.7674C19.8674 14.7181 20.7181 13.8674 21.7674 13.8674H34.2327C35.282 13.8674 36.1327 14.7181 36.1327 15.7674V28.2327C36.1327 29.282 35.282 30.1327 34.2327 30.1327H21.7674C20.7181 30.1327 19.8674 29.282 19.8674 28.2327V15.7674ZM21.7674 15.6674C21.7122 15.6674 21.6674 15.7122 21.6674 15.7674V28.2327C21.6674 28.2879 21.7122 28.3327 21.7674 28.3327H34.2327C34.2879 28.3327 34.3327 28.2879 34.3327 28.2327V15.7674C34.3327 15.7122 34.2879 15.6674 34.2327 15.6674H31.284V21.4868C31.284 22.3249 30.3843 22.8551 29.6512 22.4491L28.0001 21.5348L26.349 22.4491C25.6159 22.8551 24.7162 22.3249 24.7162 21.4868V15.6674H21.7674ZM26.5162 15.6674H29.484V20.299L28.533 19.7724C28.2014 19.5888 27.7988 19.5888 27.4672 19.7724L26.5162 20.299V15.6674ZM25.6162 24.6786C25.1191 24.6786 24.7162 25.0816 24.7162 25.5786C24.7162 26.0757 25.1191 26.4786 25.6162 26.4786H30.384C30.8811 26.4786 31.284 26.0757 31.284 25.5786C31.284 25.0816 30.8811 24.6786 30.384 24.6786H25.6162Z" fill="#3A3B3E"/>
</g>
<defs>
<clipPath id="clip0_6331_14814">
<rect width="17" height="17" fill="white" transform="translate(19.5 13.5)"/>
</clipPath>
</defs>
</svg>
